<svg width="263" height="29" viewBox="0 0 263 29" fill="none"
     xmlns="http://www.w3.org/2000/svg">
  <path
    d="M207.036 6.64301C206.121 6.64301 205.408 6.78301 204.899 6.993C204.391 7.23799 203.95 7.58798 203.577 8.07797C203.068 7.62298 202.39 7.238 201.609 6.92301C200.829 6.64302 199.947 6.46802 199.032 6.46802C198.082 6.46802 197.2 6.60802 196.454 6.88801C195.674 7.168 195.029 7.51799 194.487 8.00798C193.944 8.46296 193.537 9.02294 193.266 9.68792C192.994 10.3529 192.825 11.0179 192.825 11.7879C192.825 12.6278 192.994 13.3978 193.367 14.0978C193.707 14.7978 194.215 15.3927 194.894 15.8827C194.317 16.3027 193.876 16.7577 193.571 17.2127C193.266 17.6677 193.13 18.2977 193.13 19.0326C193.13 19.6626 193.266 20.1526 193.503 20.5376C193.74 20.9226 194.08 21.2726 194.521 21.5525C193.842 21.9725 193.3 22.4625 192.893 23.0225C192.485 23.5825 192.282 24.3175 192.282 25.1574C192.282 25.7174 192.384 26.2774 192.587 26.7324C192.791 27.2224 193.164 27.6074 193.673 27.9573C194.181 28.2723 194.826 28.5523 195.606 28.7273C196.386 28.9023 197.336 29.0073 198.455 29.0073C199.574 29.0073 200.626 28.8673 201.609 28.6223C202.593 28.3773 203.441 28.0273 204.153 27.5374C204.866 27.0824 205.408 26.5224 205.849 25.8574C206.256 25.1924 206.46 24.4575 206.46 23.6525C206.46 22.2875 206.053 21.2026 205.273 20.4676C204.459 19.7326 203.204 19.3476 201.508 19.2776L197.675 19.2076C197.064 19.2076 196.691 19.0676 196.488 18.8926C196.284 18.6826 196.183 18.4376 196.183 18.1227C196.183 17.9127 196.216 17.7027 196.284 17.4577C196.352 17.2127 196.556 17.0027 196.895 16.7577C197.539 16.9327 198.252 17.0027 199.066 17.0027C200.015 17.0027 200.863 16.8627 201.643 16.5827C202.39 16.3027 203.034 15.9527 203.577 15.4977C204.119 15.0428 204.492 14.4828 204.764 13.8178C205.035 13.1528 205.171 12.4528 205.171 11.7179C205.171 11.2629 205.137 10.9129 205.069 10.6329C205.001 10.3529 204.899 10.1429 204.832 9.93292H207.104C207.138 9.61793 207.206 9.26793 207.206 8.98794C207.206 8.67295 207.24 8.35796 207.24 8.07797C207.24 7.79798 207.24 7.55299 207.206 7.308C207.104 7.13301 207.07 6.888 207.036 6.64301ZM196.216 22.9175C196.386 22.7425 196.59 22.6025 196.861 22.4625C197.132 22.3575 197.471 22.2875 197.878 22.3225L200.829 22.3925C201.236 22.3925 201.542 22.4275 201.779 22.5325C202.016 22.6375 202.186 22.7425 202.322 22.8825C202.457 23.0225 202.525 23.1975 202.593 23.3725C202.661 23.5475 202.661 23.7225 202.661 23.9325C202.661 24.5975 202.288 25.1224 201.576 25.5074C200.863 25.8924 199.914 26.1024 198.726 26.1024C197.811 26.1024 197.098 25.9624 196.59 25.7174C196.047 25.4724 195.776 24.9474 195.776 24.2125C195.776 24.0025 195.809 23.7925 195.877 23.5475C195.945 23.3025 196.081 23.0925 196.216 22.9175ZM200.761 13.7128C200.422 14.1678 199.846 14.4128 199.066 14.4128C198.252 14.4128 197.675 14.1678 197.336 13.7128C196.963 13.2578 196.793 12.6278 196.793 11.7879C196.793 10.9829 196.963 10.3179 197.336 9.86291C197.675 9.40793 198.285 9.16294 199.066 9.16294C199.846 9.16294 200.422 9.40793 200.761 9.86291C201.101 10.3179 201.27 10.9829 201.27 11.7879C201.27 12.5928 201.101 13.2578 200.761 13.7128Z"
    fill="#0F171E"/>
  <path
    d="M217.585 6.7488C217.484 6.7138 217.28 6.6788 217.043 6.6788C216.805 6.6438 216.568 6.6438 216.398 6.6438C215.516 6.6438 214.736 6.88879 214.16 7.34378C213.549 7.83376 213.04 8.35875 212.633 8.95373C212.599 8.81373 212.599 8.63874 212.565 8.46375C212.532 8.25375 212.498 8.04375 212.464 7.86876C212.43 7.65877 212.396 7.48378 212.328 7.27379C212.294 7.09879 212.226 6.95879 212.158 6.85379C211.887 6.7838 211.616 6.7488 211.344 6.7138C211.073 6.6788 210.802 6.6438 210.496 6.6438C210.191 6.6438 209.92 6.6438 209.682 6.6788C209.445 6.7138 209.14 6.7488 208.868 6.81879V21.8333C209.242 21.8683 209.581 21.9383 209.886 21.9383C210.225 21.9733 210.53 21.9733 210.87 21.9733C211.175 21.9733 211.514 21.9733 211.853 21.9383C212.192 21.9033 212.532 21.8683 212.871 21.8333V14.6935C212.871 13.6436 212.972 12.8386 213.21 12.2436C213.447 11.6486 213.719 11.2287 214.092 10.9487C214.431 10.6687 214.804 10.4937 215.211 10.4237C215.584 10.3537 215.957 10.3187 216.263 10.3187H216.737C216.975 10.3187 217.212 10.3187 217.416 10.3887C217.484 10.0387 217.551 9.6887 217.551 9.26872C217.585 8.88373 217.585 8.53375 217.585 8.18376C217.585 7.90377 217.585 7.65877 217.551 7.41378C217.619 7.16879 217.619 6.9588 217.585 6.7488Z"
    fill="#0F171E"/>
  <path
    d="M230.542 8.74295C229.965 8.04297 229.219 7.48299 228.337 7.063C227.455 6.64302 226.438 6.46802 225.251 6.46802C224.063 6.46802 223.046 6.67802 222.164 7.063C221.282 7.48299 220.57 8.00797 219.993 8.74295C219.417 9.44292 219.01 10.2829 218.704 11.2279C218.399 12.2078 218.263 13.2228 218.263 14.3428C218.263 15.4277 218.399 16.4777 218.704 17.4227C219.01 18.3676 219.417 19.2076 219.993 19.9076C220.57 20.6076 221.282 21.1676 222.164 21.5525C223.046 21.9375 224.063 22.1475 225.251 22.1475C226.438 22.1475 227.455 21.9375 228.337 21.5525C229.219 21.1676 229.965 20.6076 230.542 19.9076C231.118 19.2076 231.559 18.3676 231.831 17.4227C232.102 16.4777 232.238 15.4627 232.238 14.3428C232.238 13.2228 232.102 12.2078 231.831 11.2279C231.559 10.2829 231.118 9.44292 230.542 8.74295ZM227.523 17.8077C227.048 18.6126 226.302 18.9976 225.251 18.9976C224.233 18.9976 223.487 18.5776 223.012 17.8077C222.571 17.0027 222.334 15.8477 222.334 14.3428C222.334 12.8378 222.571 11.6829 223.012 10.8779C223.487 10.0729 224.233 9.68792 225.251 9.68792C226.302 9.68792 227.048 10.0729 227.523 10.8779C227.964 11.6829 228.201 12.8378 228.201 14.3428C228.201 15.8477 227.998 17.0027 227.523 17.8077Z"
    fill="#0F171E"/>
  <path
    d="M242.785 6.81863V18.5783C242.311 18.7183 241.734 18.7883 241.056 18.7883C240.547 18.7883 240.106 18.7183 239.733 18.6133C239.36 18.4733 239.054 18.2633 238.783 17.9833C238.512 17.6683 238.342 17.2833 238.206 16.7583C238.071 16.2333 238.037 15.6034 238.037 14.7984V6.85363C237.359 6.74863 236.714 6.67863 236.036 6.67863C235.391 6.67863 234.713 6.74863 234.035 6.85363V14.9034C234.035 16.5133 234.238 17.8083 234.611 18.7533C235.018 19.7332 235.527 20.4682 236.205 20.9582C236.884 21.4482 237.63 21.7982 238.546 21.9382C239.428 22.0781 240.343 22.1481 241.293 22.1481C242.344 22.1481 243.396 22.0432 244.38 21.8332C245.363 21.6232 246.143 21.4132 246.754 21.2032V6.78364C246.075 6.67864 245.431 6.60864 244.753 6.60864C244.142 6.64364 243.464 6.67863 242.785 6.81863Z"
    fill="#0F171E"/>
  <path
    d="M261.238 8.32297C260.729 7.69299 260.084 7.238 259.406 6.92301C258.694 6.60802 257.947 6.46802 257.133 6.46802C256.625 6.46802 256.15 6.53802 255.709 6.67801C255.268 6.81801 254.895 7.028 254.556 7.238C254.217 7.48299 253.911 7.72798 253.674 8.04297C253.436 8.35796 253.233 8.63795 253.063 8.95294C253.029 8.81295 253.029 8.63795 252.995 8.46296C252.962 8.25297 252.928 8.04298 252.894 7.83298C252.86 7.62299 252.792 7.41299 252.758 7.238C252.69 7.063 252.656 6.923 252.622 6.81801C252.08 6.71301 251.537 6.64301 251.028 6.64301C250.689 6.64301 250.418 6.64301 250.18 6.67801C249.943 6.67801 249.671 6.71302 249.4 6.78302V28.6923C249.773 28.7623 250.112 28.7973 250.418 28.7973C250.757 28.7973 251.062 28.8323 251.401 28.8323C251.707 28.8323 252.046 28.8323 252.351 28.7973C252.69 28.7623 253.029 28.7273 253.369 28.6923V22.0075C253.572 22.0425 253.843 22.0775 254.149 22.1125C254.454 22.1475 254.759 22.1475 255.098 22.1475C256.319 22.1475 257.439 21.9725 258.422 21.5875C259.406 21.2026 260.22 20.6776 260.898 19.9776C261.577 19.2776 262.085 18.4376 262.459 17.4577C262.832 16.4427 263.001 15.3227 263.001 14.0628C263.001 12.7678 262.866 11.6479 262.56 10.7029C262.153 9.75792 261.746 8.95295 261.238 8.32297ZM257.744 17.6677C257.133 18.4376 256.218 18.8226 255.064 18.8226C254.42 18.8226 253.809 18.7526 253.335 18.5776V13.4678C253.335 12.9778 253.369 12.5228 253.47 12.1028C253.572 11.6829 253.708 11.2979 253.911 10.9829C254.115 10.6679 254.386 10.4229 254.691 10.2479C255.031 10.0729 255.438 9.96791 255.878 9.96791C256.387 9.96791 256.828 10.0729 257.167 10.2829C257.507 10.4929 257.778 10.7729 258.015 11.1579C258.253 11.5079 258.388 11.9628 258.49 12.4878C258.592 13.0128 258.626 13.5728 258.626 14.1678C258.66 15.7427 258.355 16.8977 257.744 17.6677Z"
    fill="#0F171E"/>
  <path
    d="M123.903 8.4635C123.869 8.25351 123.835 8.04351 123.801 7.86852C123.767 7.65852 123.733 7.48353 123.665 7.27354C123.598 7.09855 123.564 6.95855 123.496 6.85355C123.225 6.78355 122.953 6.74856 122.682 6.71356C122.411 6.67856 122.139 6.64355 121.868 6.64355C121.563 6.64355 121.291 6.64356 121.054 6.67856C120.782 6.71355 120.545 6.74855 120.24 6.81855V21.8331C120.579 21.9031 120.952 21.9381 121.257 21.9381C121.596 21.9731 121.902 21.9731 122.241 21.9731C122.546 21.9731 122.885 21.9731 123.225 21.9381C123.564 21.9031 123.903 21.8681 124.242 21.8331V14.6933C124.242 13.6433 124.344 12.8384 124.581 12.2434C124.819 11.6484 125.124 11.2284 125.463 10.9484C125.802 10.6684 126.175 10.4934 126.582 10.4234C126.989 10.3534 127.329 10.3184 127.634 10.3184H128.109C128.346 10.3184 128.584 10.3184 128.787 10.3884C128.855 10.0385 128.923 9.68846 128.923 9.26847C128.957 8.88348 128.957 8.5335 128.957 8.18351C128.957 7.90352 128.957 7.65853 128.923 7.41353C128.889 7.16854 128.889 6.92355 128.821 6.74856C128.719 6.71356 128.55 6.67856 128.278 6.67856C128.041 6.64356 127.837 6.64355 127.634 6.64355C126.752 6.64355 126.006 6.88855 125.395 7.34353C124.785 7.79852 124.276 8.3585 123.869 8.95348C123.937 8.81349 123.937 8.67349 123.903 8.4635Z"
    fill="#0F171E"/>
  <path
    d="M133.603 7.09759C132.721 7.51758 132.009 8.07756 131.398 8.77754C130.822 9.47751 130.381 10.3525 130.076 11.2975C129.77 12.2774 129.635 13.2924 129.635 14.4124C129.635 15.5323 129.77 16.5823 130.076 17.5273C130.381 18.4722 130.822 19.2772 131.432 19.9772C132.043 20.6772 132.823 21.2021 133.807 21.5871C134.79 21.9721 135.91 22.1821 137.266 22.1821C139.098 22.1821 140.76 21.9021 142.218 21.3071C142.184 20.6772 142.117 20.1172 141.947 19.5572C141.811 19.0322 141.642 18.5422 141.404 18.1572C140.794 18.4022 140.183 18.5772 139.505 18.6822C138.827 18.8222 138.182 18.8572 137.538 18.8572C136.384 18.8572 135.435 18.6122 134.722 18.0872C134.01 17.5623 133.603 16.7223 133.535 15.5673H142.863C142.897 15.3573 142.931 15.0773 142.965 14.6923C142.998 14.3424 142.998 13.9924 142.998 13.6074C142.998 12.5924 142.863 11.6474 142.591 10.7725C142.32 9.89751 141.879 9.12753 141.336 8.49755C140.794 7.86757 140.115 7.34258 139.335 6.99259C138.555 6.6076 137.639 6.43262 136.622 6.43262C135.503 6.46762 134.485 6.67761 133.603 7.09759ZM139.267 12.6974H133.569C133.671 11.7174 133.942 10.9475 134.451 10.4225C134.926 9.89751 135.638 9.61751 136.588 9.61751C137.402 9.61751 138.046 9.8975 138.521 10.4925C138.962 11.0175 139.234 11.7874 139.267 12.6974Z"
    fill="#0F171E"/>
  <path
    d="M150.291 21.9731C151.207 21.9731 152.089 21.8681 152.97 21.6581C153.004 21.5181 153.004 21.3781 153.004 21.2381C153.004 21.0981 153.004 20.9231 153.004 20.7131C153.004 20.3981 152.97 20.0481 152.936 19.6631C152.869 19.2781 152.801 18.8932 152.665 18.5082C152.462 18.5432 152.224 18.5782 151.953 18.6482C151.682 18.6832 151.41 18.7182 151.139 18.7182C150.766 18.7182 150.46 18.6832 150.223 18.6132C149.952 18.5432 149.748 18.4032 149.579 18.1932C149.375 17.9832 149.239 17.7032 149.172 17.3182C149.07 16.9682 149.036 16.4782 149.036 15.8833V10.0034H152.428C152.496 9.68844 152.529 9.40845 152.529 9.16346C152.563 8.91847 152.563 8.63847 152.563 8.39348C152.563 8.14849 152.563 7.90351 152.529 7.65851C152.529 7.44852 152.462 7.16852 152.428 6.88853H149.036V2.51367H148.391L145.203 4.29862C145.203 4.29862 145.101 4.33362 145.101 4.47361V16.7932C145.101 18.6482 145.542 19.9781 146.458 20.8181C147.272 21.5531 148.595 21.9731 150.291 21.9731Z"
    fill="#0F171E"/>
  <path
    d="M166.334 21.2371V12.5224C166.334 10.3875 165.792 8.84753 164.706 7.86756C163.621 6.88759 162.095 6.43262 160.127 6.43262C159.415 6.43262 158.635 6.50261 157.821 6.6426C157.007 6.7826 156.193 6.9926 155.345 7.27259C155.345 7.90257 155.413 8.42755 155.549 8.88254C155.684 9.33753 155.888 9.7925 156.125 10.3175C157.278 9.8975 158.364 9.72251 159.347 9.72251C159.822 9.72251 160.229 9.7575 160.636 9.7925C161.009 9.8625 161.349 9.96751 161.62 10.1075C161.891 10.2825 162.095 10.4925 162.23 10.7725C162.4 11.0525 162.468 11.4375 162.468 11.8924V12.2424C161.823 12.1724 161.213 12.1724 160.67 12.1724C159.924 12.1724 159.178 12.2424 158.432 12.4174C157.685 12.5924 157.007 12.8374 156.397 13.2224C155.786 13.6074 155.277 14.0974 154.904 14.7273C154.531 15.3573 154.328 16.1273 154.328 17.0723C154.328 18.0172 154.497 18.7872 154.802 19.4172C155.108 20.0472 155.549 20.5722 156.125 20.9921C156.702 21.4121 157.38 21.6921 158.194 21.8671C159.008 22.0421 159.856 22.1121 160.806 22.1121C161.993 22.1121 163.044 22.0071 163.994 21.8321C164.876 21.6571 165.69 21.4821 166.334 21.2371ZM162.468 18.7522C162.264 18.7872 162.027 18.8222 161.756 18.8922C161.484 18.9272 161.179 18.9622 160.908 18.9622C160.67 18.9622 160.365 18.9622 160.06 18.9272C159.72 18.8922 159.415 18.8222 159.144 18.6822C158.839 18.5422 158.601 18.3672 158.398 18.0872C158.194 17.8073 158.092 17.4223 158.092 16.9323C158.092 16.1973 158.364 15.6373 158.906 15.2873C159.449 14.9373 160.161 14.7974 161.077 14.7974C161.281 14.7974 161.518 14.7974 161.789 14.8324C162.061 14.8674 162.298 14.9023 162.502 14.9373V18.7522H162.468Z"
    fill="#0F171E"/>
  <path
    d="M171.49 21.9729C172.134 21.9729 172.778 21.9029 173.457 21.7979V6.81836H167.657C167.555 7.30834 167.487 7.83334 167.487 8.35832C167.487 8.60331 167.521 8.8833 167.521 9.16329C167.555 9.44328 167.589 9.72327 167.657 9.96826H169.556V21.8329C170.201 21.9379 170.845 21.9729 171.49 21.9729Z"
    fill="#0F171E"/>
  <path
    d="M169.997 4.40381C170.37 4.43881 170.71 4.43881 171.015 4.43881C171.32 4.43881 171.659 4.43881 172.032 4.40381C172.405 4.40381 172.745 4.3338 173.05 4.2988C173.118 3.98376 173.152 3.63371 173.152 3.31867C173.186 3.00363 173.186 2.65359 173.186 2.37355C173.186 2.05851 173.186 1.70846 173.152 1.39342C173.118 1.07838 173.084 0.763348 173.05 0.413303C172.745 0.343295 172.372 0.308292 171.998 0.273288C171.625 0.238283 171.286 0.238281 170.947 0.238281C170.642 0.238281 170.303 0.238283 169.929 0.273288C169.556 0.308292 169.217 0.343295 168.912 0.413303C168.81 1.07839 168.742 1.74347 168.742 2.37355C168.742 3.00363 168.81 3.66872 168.912 4.2988C169.251 4.3338 169.624 4.40381 169.997 4.40381Z"
    fill="#0F171E"/>
  <path
    d="M180.919 21.9735C181.258 21.9735 181.665 21.9385 182.072 21.9035C182.479 21.8685 182.852 21.7985 183.157 21.6935C183.191 21.5535 183.225 21.4136 183.225 21.2736V20.8536C183.225 20.0836 183.123 19.3136 182.92 18.5436C182.75 18.5786 182.581 18.6136 182.411 18.6136C182.241 18.6486 182.072 18.6486 181.902 18.6486C181.563 18.6486 181.292 18.6136 181.054 18.5436C180.817 18.4736 180.647 18.3337 180.512 18.1237C180.376 17.9137 180.274 17.6337 180.206 17.2837C180.139 16.8987 180.105 16.4437 180.105 15.8487V0.624213C179.426 0.519217 178.782 0.449219 178.137 0.449219C177.493 0.449219 176.815 0.519217 176.136 0.624213V16.7587C176.136 18.6136 176.577 19.9436 177.459 20.7836C178.307 21.5536 179.46 21.9735 180.919 21.9735Z"
    fill="#0F171E"/>
  <path
    d="M2.069 21.7979C2.74736 21.9029 3.3918 21.9729 4.00232 21.9729C4.64677 21.9729 5.29121 21.9029 5.96957 21.7979V6.81836H0.16959C0.067836 7.30834 0 7.83334 0 8.35832C0 8.60331 0 8.8833 0.033918 9.16329C0.067836 9.44328 0.101754 9.72327 0.16959 9.96826H2.069V21.7979Z"
    fill="#0F171E"/>
  <path
    d="M2.51009 4.40381C2.88319 4.43881 3.22237 4.43881 3.52763 4.43881C3.83289 4.43881 4.17207 4.43881 4.54517 4.40381C4.91827 4.3688 5.25745 4.3338 5.56271 4.2988C5.63055 3.98376 5.66447 3.63371 5.69838 3.31867C5.69838 3.00363 5.7323 2.65359 5.7323 2.37355C5.7323 2.05851 5.7323 1.70846 5.69838 1.39342C5.66447 1.07838 5.63055 0.763348 5.56271 0.413303C5.25745 0.343295 4.88435 0.308292 4.51125 0.273288C4.13816 0.238283 3.79898 0.238281 3.4598 0.238281C3.15453 0.238281 2.81535 0.238283 2.44226 0.273288C2.06916 0.308292 1.72998 0.343295 1.42472 0.413303C1.32296 1.07839 1.25513 1.74347 1.25513 2.37355C1.25513 3.00363 1.32296 3.66872 1.42472 4.2988C1.7639 4.3338 2.13699 4.40381 2.51009 4.40381Z"
    fill="#0F171E"/>
  <path
    d="M12.1429 21.7977V13.9579C12.1429 13.153 12.2108 12.488 12.3804 11.998C12.55 11.508 12.7874 11.088 13.0248 10.808C13.2962 10.5281 13.6014 10.3531 13.9406 10.2481C14.2798 10.1431 14.619 10.1081 14.9242 10.1081C15.7043 10.1081 16.247 10.3881 16.5523 10.948C16.8575 11.508 17.0271 12.313 17.0271 13.363V21.8327C17.7055 21.9377 18.3499 22.0077 19.0283 22.0077C19.6727 22.0077 20.3511 21.9377 21.0295 21.8327V12.278C21.0295 10.2831 20.6224 8.8131 19.7745 7.90313C18.9605 6.95816 17.7055 6.50317 16.0435 6.50317C15.5347 6.50317 15.0599 6.57317 14.619 6.71317C14.178 6.85316 13.8049 7.06316 13.4658 7.27315C13.1266 7.48315 12.8213 7.76313 12.55 8.04312C12.2786 8.32311 12.0751 8.6381 11.8716 8.9181C11.8716 8.7781 11.8377 8.63811 11.8038 8.42811C11.7699 8.25312 11.7359 8.04313 11.702 7.83314C11.6681 7.62314 11.6342 7.44815 11.5663 7.23815C11.4985 7.06316 11.4646 6.92316 11.3968 6.81816C11.1254 6.74816 10.888 6.71317 10.6506 6.67817C10.4131 6.64317 10.1418 6.64317 9.80261 6.64317C9.46343 6.64317 9.19208 6.64317 8.92074 6.67817C8.64939 6.71317 8.41197 6.74816 8.14062 6.81816V21.7977C8.81898 21.9027 9.46343 21.9727 10.1418 21.9727C10.8201 21.9727 11.4646 21.9377 12.1429 21.7977Z"
    fill="#0F171E"/>
  <path
    d="M27.9149 21.9373C28.254 21.9723 28.5932 21.9723 28.8646 21.9723C29.1359 21.9723 29.4412 21.9723 29.8482 21.9373C30.2213 21.9023 30.5944 21.8673 30.9675 21.8323L36.4622 6.88773C35.9873 6.78273 35.5803 6.74773 35.2072 6.71274C34.8341 6.67774 34.5289 6.67773 34.2236 6.67773C33.8505 6.67773 33.5113 6.67774 33.1722 6.71274C32.7991 6.74773 32.4938 6.78273 32.1546 6.85273L29.0342 18.0174L25.8459 6.85273C25.5406 6.78273 25.1675 6.71274 24.7944 6.71274C24.4213 6.67774 24.0482 6.67773 23.6751 6.67773C23.4038 6.67773 23.0646 6.67774 22.6915 6.71274C22.2845 6.74773 21.8775 6.78273 21.4365 6.88773L26.8634 21.8323C27.2365 21.8673 27.5757 21.9023 27.9149 21.9373Z"
    fill="#0F171E"/>
  <path
    d="M36.7672 17.5274C37.0725 18.4724 37.5134 19.2774 38.1239 19.9773C38.7345 20.6423 39.5146 21.2023 40.4982 21.5873C41.4479 21.9723 42.635 22.1823 43.9578 22.1823C45.7894 22.1823 47.4514 21.9023 48.9099 21.3073C48.876 20.6773 48.8081 20.1174 48.6385 19.5574C48.5029 19.0324 48.2993 18.5424 48.0958 18.1574C47.4853 18.4024 46.8748 18.5774 46.1964 18.6824C45.552 18.8224 44.8736 18.8924 44.2631 18.8924C43.1099 18.8924 42.1602 18.6474 41.4479 18.0874C40.7356 17.5624 40.3286 16.7224 40.2608 15.5675H49.5882C49.6221 15.3575 49.6561 15.0775 49.69 14.7275C49.7239 14.3775 49.7239 13.9925 49.7239 13.6425C49.7239 12.6276 49.5882 11.6826 49.3169 10.8076C49.0455 9.93267 48.6046 9.1627 48.0619 8.53272C47.5192 7.90274 46.8409 7.37775 46.0608 7.02776C45.2806 6.64277 44.3649 6.46777 43.3473 6.46777C42.1941 6.46777 41.1766 6.67777 40.2947 7.09776C39.4128 7.51775 38.7006 8.07772 38.09 8.7777C37.5134 9.47768 37.0386 10.3527 36.7672 11.2976C36.462 12.2426 36.3263 13.2926 36.3263 14.4125C36.3263 15.5325 36.4959 16.5475 36.7672 17.5274ZM41.1766 10.4227C41.6514 9.89767 42.3637 9.61767 43.3134 9.61767C44.1274 9.61767 44.7719 9.89767 45.2467 10.4577C45.6877 11.0176 45.959 11.7876 45.9929 12.6976H40.2947C40.3965 11.7176 40.6678 10.9476 41.1766 10.4227Z"
    fill="#0F171E"/>
  <path
    d="M59.8314 10.9126C60.1367 11.4726 60.3063 12.2776 60.3063 13.3276V21.7973C60.9847 21.9023 61.663 21.9723 62.3075 21.9723C62.9519 21.9723 63.6303 21.9023 64.3086 21.7973V12.2426C64.3086 10.2477 63.9016 8.7777 63.0537 7.86773C62.2057 6.92276 60.9847 6.46777 59.3227 6.46777C58.78 6.46777 58.3051 6.53777 57.8981 6.67777C57.4572 6.81776 57.0841 7.02776 56.7449 7.23775C56.4057 7.44775 56.1005 7.72774 55.8291 8.00773C55.5578 8.28772 55.3543 8.60271 55.1508 8.88271C55.1168 8.74271 55.1168 8.60271 55.0829 8.39271C55.049 8.21772 55.0151 8.00773 54.9812 7.79774C54.9473 7.58774 54.9133 7.41275 54.8455 7.20275C54.7777 7.02776 54.7437 6.88777 54.6759 6.78277C54.4385 6.71277 54.1671 6.67777 53.8958 6.64277C53.6584 6.60777 53.387 6.60778 53.0478 6.60778C52.7426 6.60778 52.4373 6.60777 52.166 6.64277C51.8946 6.67777 51.6233 6.71277 51.3859 6.78277V21.7623C52.0642 21.8673 52.7087 21.9373 53.387 21.9373C54.0315 21.9373 54.7098 21.8673 55.3882 21.7623V13.9225C55.3882 13.1176 55.456 12.4526 55.6256 11.9626C55.7952 11.4726 56.0326 11.0526 56.304 10.7726C56.5753 10.4927 56.8806 10.3177 57.2198 10.2127C57.5589 10.1077 57.8642 10.0727 58.2034 10.0727C58.9835 10.0727 59.5262 10.3877 59.8314 10.9126Z"
    fill="#0F171E"/>
  <path
    d="M73.7712 18.5082C73.5677 18.5432 73.3303 18.5782 73.0589 18.6482C72.7876 18.6832 72.5162 18.7182 72.211 18.7182C71.8379 18.7182 71.5326 18.6832 71.2952 18.6132C71.0239 18.5432 70.8203 18.4032 70.6508 18.1932C70.4812 17.9832 70.3455 17.7032 70.2437 17.3182C70.142 16.9332 70.1081 16.4782 70.1081 15.8833V10.0034H73.4999C73.5677 9.68844 73.6016 9.40845 73.6016 9.16346C73.6355 8.91847 73.6355 8.63847 73.6355 8.39348C73.6355 8.14849 73.6355 7.90351 73.6016 7.65851C73.6016 7.41352 73.5338 7.16852 73.4999 6.88853H70.1081V2.51367H69.4636L66.2753 4.29862C66.2753 4.29862 66.1736 4.33362 66.1736 4.47361V16.7932C66.1736 18.6482 66.6145 19.9781 67.4964 20.8181C68.4122 21.6581 69.7011 22.043 71.397 22.043C72.3127 22.043 73.1946 21.9381 74.0765 21.7281C74.1104 21.5881 74.1104 21.4481 74.1104 21.3081C74.1104 21.1681 74.1104 20.9931 74.1104 20.7831C74.1104 20.4681 74.0765 20.1181 74.0086 19.7331C74.0086 19.2431 73.9069 18.8582 73.7712 18.5082Z"
    fill="#0F171E"/>
  <path
    d="M75.1621 8.35847C75.1621 8.60347 75.196 8.88345 75.196 9.16344C75.2299 9.44344 75.2639 9.72342 75.3317 9.96842H77.2311V21.833C77.9095 21.938 78.5539 22.008 79.1644 22.008C79.8089 22.008 80.4533 21.938 81.1317 21.833V6.85352H75.3317C75.2299 7.3085 75.1621 7.83349 75.1621 8.35847Z"
    fill="#0F171E"/>
  <path
    d="M77.6726 4.40381C78.0457 4.43881 78.3849 4.43881 78.6901 4.43881C79.0293 4.43881 79.3685 4.43881 79.7077 4.40381C80.0808 4.3688 80.4199 4.3338 80.7252 4.2988C80.793 3.98376 80.827 3.63371 80.827 3.31867C80.8609 3.00363 80.8609 2.65359 80.8609 2.37355C80.8609 2.05851 80.8609 1.70846 80.827 1.39342C80.793 1.07838 80.7591 0.763348 80.7252 0.413303C80.4199 0.343295 80.0808 0.308292 79.6737 0.273288C79.3006 0.238283 78.9615 0.238281 78.6562 0.238281C78.3509 0.238281 78.0118 0.238283 77.6387 0.273288C77.2656 0.308292 76.9264 0.343295 76.6211 0.413303C76.5194 1.07839 76.4515 1.74347 76.4515 2.37355C76.4515 3.00363 76.5194 3.66872 76.6211 4.2988C76.9603 4.3338 77.2995 4.40381 77.6726 4.40381Z"
    fill="#0F171E"/>
  <path
    d="M96.2591 6.67856C95.886 6.64356 95.5807 6.64355 95.2755 6.64355C94.9024 6.64355 94.5632 6.64356 94.1901 6.67856C93.8509 6.71355 93.5117 6.74855 93.1725 6.81855L90.0521 17.9832L86.8638 6.81855C86.5246 6.74855 86.1854 6.67856 85.8123 6.67856C85.4392 6.64356 85.0661 6.64355 84.693 6.64355C84.3878 6.64355 84.0825 6.64356 83.6755 6.67856C83.3024 6.71355 82.8615 6.74855 82.4205 6.85355L87.8474 21.7981C88.1527 21.8681 88.4919 21.9381 88.865 21.9381C89.238 21.9731 89.5433 21.9731 89.8147 21.9731C90.086 21.9731 90.4252 21.9731 90.7983 21.9381C91.1714 21.9031 91.5445 21.8681 91.9176 21.8331L97.4123 6.88855C97.0392 6.74856 96.5983 6.67856 96.2591 6.67856Z"
    fill="#0F171E"/>
  <path
    d="M110.132 10.8076C109.861 9.93267 109.454 9.1627 108.877 8.53272C108.334 7.90274 107.656 7.37775 106.876 7.02776C106.096 6.64277 105.18 6.46777 104.162 6.46777C103.009 6.46777 101.992 6.67777 101.11 7.09776C100.228 7.51775 99.5156 8.07772 98.939 8.7777C98.3624 9.47768 97.8876 10.3527 97.5823 11.2976C97.277 12.2426 97.1414 13.2926 97.1414 14.4125C97.1414 15.5325 97.277 16.5825 97.5823 17.5274C97.8876 18.4724 98.3285 19.2774 98.939 19.9773C99.5495 20.6423 100.33 21.2023 101.279 21.5873C102.229 21.9723 103.416 22.1823 104.739 22.1823C106.571 22.1823 108.233 21.9023 109.691 21.3073C109.691 20.6773 109.589 20.1174 109.454 19.5574C109.284 19.0324 109.114 18.5424 108.911 18.1574C108.3 18.4024 107.656 18.5774 107.011 18.6824C106.333 18.8224 105.689 18.8924 105.044 18.8924C103.891 18.8924 102.941 18.6474 102.229 18.0874C101.517 17.5624 101.11 16.7224 101.042 15.5675H110.369C110.403 15.3575 110.437 15.0775 110.471 14.7275C110.505 14.3775 110.505 13.9925 110.505 13.6425C110.573 12.6276 110.437 11.6826 110.132 10.8076ZM101.11 12.6976C101.212 11.7176 101.483 10.9476 101.992 10.4227C102.466 9.89767 103.179 9.61767 104.128 9.61767C104.942 9.61767 105.587 9.89767 106.062 10.4577C106.503 11.0176 106.774 11.7876 106.808 12.6976H101.11Z"
    fill="#0F171E"/>
</svg>
