<svg width="44" height="44" viewBox="0 0 44 44" fill="none"
     xmlns="http://www.w3.org/2000/svg">
  <path fill-rule="evenodd" clip-rule="evenodd"
        d="M27.6938 16.6282L15.7879 23.791C15.2702 24.0468 15.0114 24.8142 15.2702 25.3258L16.5644 29.6747C16.5644 29.9305 17.082 29.9305 17.082 29.6747L17.3408 27.1165C17.3408 26.6049 17.5997 26.3491 17.8585 25.8375L27.6938 16.884C28.2114 16.884 27.9526 16.6282 27.6938 16.6282Z"
        fill="#0F171E"/>
  <path fill-rule="evenodd" clip-rule="evenodd"
        d="M22 0C9.83529 0 0 9.72093 0 22C0 34.0233 9.83529 44 22 44C34.1647 44 44 34.2791 44 22C44 9.72093 34.1647 0 22 0ZM33.6471 12.7907L29.2471 34.0233C29.2471 34.5349 28.4706 34.7907 28.2118 34.5349L22 30.186C21.7412 29.9302 21.2235 29.9302 20.7059 30.186L17.3412 33C16.8235 33.2558 16.3059 33.2558 16.3059 32.7442L13.7176 25.0698L7.76471 22.7674C7.24706 22.5116 7.24706 21.7442 7.76471 21.4884L32.6118 12.0233C33.1294 11.7674 33.6471 12.2791 33.6471 12.7907Z"
        fill="#0F171E"/>
</svg>
