<svg width="44" height="44" viewBox="0 0 44 44" fill="none"
     xmlns="http://www.w3.org/2000/svg">
  <path fill-rule="evenodd" clip-rule="evenodd"
        d="M22 0C9.83529 0 0 9.72093 0 22C0 34.0233 9.83529 44 22 44C34.1647 44 44 34.2791 44 22C44 9.72093 34.1647 0 22 0ZM32.8706 24.0465C34.6824 25.8372 35.9765 27.1163 36.7529 28.1395C37.0118 28.6512 37.2706 29.1628 37.0118 29.6744C37.0118 30.186 36.4941 30.186 36.2353 30.186L31.3176 30.4419C30.5412 30.4419 29.7647 30.186 28.7294 29.1628C27.6941 28.3953 27.1765 27.6279 26.6588 27.1163C26.4 26.8605 26.1412 26.6046 25.6235 26.6046C25.1059 26.6046 24.8471 26.8605 24.5882 27.3721L24.3294 29.1628C24.3294 29.6744 24.0706 29.9302 23.8118 29.9302C23.5529 30.186 23.2941 30.186 23.2941 30.186C23.0353 30.186 22.7765 30.186 22.5176 30.186C21.2235 30.186 20.1882 30.186 19.1529 29.9302C18.1176 29.6744 17.3412 29.4186 16.5647 28.907C16.0471 28.6512 15.5294 28.1395 15.0118 27.8837C14.4941 27.3721 13.9765 26.6046 12.9412 25.5814C10.6118 22.2558 8.8 19.4419 7.76471 16.8837C7.24706 15.8605 6.98824 15.093 6.98824 14.3256C7.24706 14.0698 7.50588 14.0698 8.02353 14.0698C8.54118 14.0698 9.31765 14.0698 10.3529 14.0698C11.3882 14.0698 11.9059 14.0698 12.1647 14.0698C12.6824 14.0698 12.9412 14.3256 13.4588 14.8372C14.7529 17.6512 15.7882 19.6977 17.0824 21.2326C17.6 22 18.1176 21.7442 18.3765 20.7209C18.3765 20.7209 18.6353 19.4419 18.6353 17.1395C18.6353 15.6046 18.1176 14.5814 16.8235 14.3256C17.0824 13.814 18.1176 13.3023 19.9294 13.3023C20.4471 13.3023 20.9647 13.3023 21.4824 13.3023C22 13.3023 22.5176 13.3023 22.5176 13.3023C24.0706 13.3023 24.5882 13.814 24.5882 15.093C24.5882 15.3488 24.5882 15.6047 24.5882 16.1163C24.5882 16.6279 24.5882 17.1395 24.5882 17.6512C24.5882 18.1628 24.5882 18.6744 24.5882 19.186C24.5882 19.6977 24.5882 20.2093 24.8471 20.7209C25.1059 21.2326 25.1059 21.2326 25.3647 21.4884C25.6235 21.2326 25.8824 21.2326 26.1412 20.9767C26.4 20.7209 26.6588 20.4651 26.9176 20.2093C27.1765 19.6977 27.4353 19.4419 27.4353 19.4419C27.6941 19.186 27.6941 18.9302 28.2118 18.4186C28.4706 17.6512 28.4706 17.3953 28.4706 17.1395C28.4706 16.8837 28.7294 16.6279 28.9882 16.1163C29.2471 15.6047 29.5059 15.093 29.5059 15.093V14.8372C29.7647 14.3256 29.7647 14.0698 30.0235 14.0698C30.0235 14.0698 30.5412 14.0698 31.0588 14.0698H35.7176C36.2353 14.0698 36.4941 14.0698 36.7529 14.0698C36.7529 14.0698 37.0118 14.3256 37.2706 14.3256C37.5294 14.8372 37.2706 15.6046 36.2353 17.1395C35.2 18.6744 34.4235 19.6977 33.3882 20.7209C32.0941 22.2558 31.8353 23.2791 32.8706 24.0465Z"
        fill="#0F171E"/>
</svg>
