<svg width="44" height="44" viewBox="0 0 44 44" fill="none"
     xmlns="http://www.w3.org/2000/svg">
  <path fill-rule="evenodd" clip-rule="evenodd"
        d="M22 0C9.83529 0 0 9.72093 0 22C0 34.0233 9.83529 44 22 44C34.1647 44 44 34.2791 44 22C44 9.72093 34.1647 0 22 0ZM36.2353 29.9302C35.9765 30.6977 35.4588 31.2093 34.9412 31.4651C30.0235 33.2558 22 33.2558 22 33.2558C22 33.2558 13.9765 33.2558 9.05882 31.4651C8.54118 31.2093 7.76471 30.6977 7.76471 29.9302C7.50588 28.6512 6.98824 26.093 6.98824 21.7442C6.98824 17.3953 7.50588 15.093 7.76471 13.5581C7.76471 13.3023 8.54118 12.5349 9.05882 12.2791C13.9765 10.4884 22 10.4884 22 10.4884C22 10.4884 30.0235 10.4884 34.9412 12.2791C35.7176 12.5349 36.2353 13.3023 36.2353 13.814C36.4941 15.093 37.0118 17.6512 37.0118 22C37.0118 26.093 36.7529 28.6512 36.2353 29.9302Z"
        fill="#0F171E"/>
  <path d="M19.6707 26.6043L26.6589 21.9997L19.6707 17.395V26.6043Z"
        fill="#0F171E"/>
</svg>
